<svg width="53" height="53" viewBox="0 0 53 53" fill="none" xmlns="http://www.w3.org/2000/svg">
<path d="M33.862 8.28125H19.1363C16.258 8.28344 13.4983 9.4278 11.463 11.463C9.4278 13.4983 8.28344 16.258 8.28125 19.1363V33.862C8.283 36.7406 9.42717 39.5008 11.4625 41.5364C13.4978 43.572 16.2578 44.7166 19.1363 44.7188H33.862C36.7405 44.7161 39.5002 43.5714 41.5354 41.5359C43.5706 39.5004 44.7149 36.7405 44.7171 33.862V19.1363C44.7158 16.2578 43.5717 13.4975 41.5363 11.4621C39.5008 9.42664 36.7406 8.28257 33.862 8.28125ZM41.0535 33.862C41.053 35.7692 40.2952 37.5981 38.9467 38.9467C37.5981 40.2952 35.7692 41.053 33.862 41.0535H19.1363C18.192 41.0535 17.2569 40.8674 16.3845 40.506C15.5121 40.1446 14.7194 39.6149 14.0518 38.947C13.3841 38.2792 12.8546 37.4864 12.4933 36.6139C12.1321 35.7415 11.9463 34.8063 11.9465 33.862V19.1363C11.9463 18.1921 12.1321 17.257 12.4934 16.3846C12.8546 15.5122 13.3842 14.7196 14.0519 14.0519C14.7196 13.3842 15.5122 12.8546 16.3846 12.4934C17.257 12.1321 18.1921 11.9463 19.1363 11.9465H33.862C35.7687 11.947 37.5972 12.7046 38.9455 14.0529C40.2937 15.4011 41.0514 17.2296 41.0518 19.1363L41.0535 33.862Z" fill="#29154D"/>
<path d="M26.5 17.0793C21.3027 17.0793 17.0792 21.3044 17.0792 26.5C17.0792 31.6957 21.3043 35.9208 26.5 35.9208C31.6956 35.9208 35.9207 31.6957 35.9207 26.5C35.9207 21.3044 31.6973 17.0793 26.5 17.0793ZM26.5 32.2555C24.9735 32.2557 23.5095 31.6495 22.43 30.5703C21.3505 29.4911 20.7439 28.0273 20.7437 26.5008C20.7435 24.9744 21.3496 23.5104 22.4288 22.4309C23.508 21.3514 24.9719 20.7448 26.4983 20.7445C28.0248 20.7443 29.4888 21.3505 30.5683 22.4297C31.6478 23.5089 32.2544 24.9727 32.2546 26.4992C32.2548 28.0256 31.6487 29.4896 30.5695 30.5692C29.4903 31.6487 28.0264 32.2553 26.5 32.2555ZM35.9406 14.8914C36.3869 14.8917 36.8232 15.0243 37.1942 15.2725C37.5651 15.5207 37.8542 15.8733 38.0249 16.2857C38.1955 16.6981 38.2401 17.1519 38.153 17.5896C38.0658 18.0274 37.8508 18.4295 37.5352 18.7451C37.2196 19.0607 36.8175 19.2757 36.3798 19.3628C35.942 19.45 35.4882 19.4054 35.0758 19.2348C34.6634 19.0641 34.3108 18.775 34.0626 18.404C33.8144 18.0331 33.6818 17.5968 33.6815 17.1505C33.6815 15.905 34.5262 14.8914 35.9406 14.8914Z" fill="#29154D"/>
</svg>
