<svg width="559" height="165" viewBox="0 0 559 165" fill="none" xmlns="http://www.w3.org/2000/svg">
<g filter="url(#filter0_i_824_556)">
<path d="M20.75 138C13.25 129.833 7.91667 121.333 4.75 112.5C1.58333 103.5 3.53903e-07 93.5 3.53903e-07 82.5C3.53903e-07 70 2.25 58.75 6.75 48.75C11.4167 38.75 17.8333 30 26 22.5C33.1667 16 41.4167 10.8333 50.75 6.99999C60.25 3.16665 70.5 1.24999 81.5 1.24999C92.5 1.24999 102.667 2.91666 112 6.25C121.333 9.41666 129.75 14.5 137.25 21.5C145.25 29 151.5 38.0833 156 48.75C160.667 59.25 163 70.5 163 82.5C163 93.5 161.417 103.5 158.25 112.5C155.083 121.333 149.75 129.833 142.25 138C134.25 146.5 124.75 152.917 113.75 157.25C102.917 161.417 91.75 163.417 80.25 163.25C69.0833 163.25 58.3333 161.167 48 157C37.8333 152.833 28.75 146.5 20.75 138ZM81.5 42.5C75.5 42.5 70.1667 43.9167 65.5 46.75C61 49.5833 57.25 53.1667 54.25 57.5C51.75 61 49.9167 64.9167 48.75 69.25C47.75 73.5833 47.25 78 47.25 82.5C47.25 87.3333 48.0833 92.1667 49.75 97C51.4167 101.833 53.6667 106.083 56.5 109.75C59.6667 113.583 63.25 116.583 67.25 118.75C71.4167 120.75 76.1667 121.75 81.5 121.75C86 121.75 90.1667 120.917 94 119.25C98 117.417 101.417 115.083 104.25 112.25C108.083 108.417 110.917 103.917 112.75 98.75C114.75 93.4167 115.75 88 115.75 82.5C115.75 77.8333 115.083 73.3333 113.75 69C112.583 64.5 110.667 60.5 108 57C105 52.6667 101.25 49.1667 96.75 46.5C92.4167 43.8333 87.3333 42.5 81.5 42.5ZM415.309 3.49999L413.809 46.5H363.809V66.5H404.059L402.559 101H363.809V118H415.309L413.809 161H312.809V3.49999H415.309Z" fill="#BA74FB"/>
<path d="M244.596 3.49999C252.762 3.49999 259.846 3.99999 265.846 5C271.846 5.99999 277.012 7.83332 281.346 10.5C287.679 14.1667 292.262 19.0833 295.096 25.25C297.929 31.25 299.346 37.8333 299.346 45C299.179 50.5 298.429 55.0833 297.096 58.75C295.929 62.25 294.179 65.4167 291.846 68.25C289.846 70.9167 287.596 73.25 285.096 75.25C282.596 77.0833 279.596 78.75 276.096 80.25C282.096 81.75 287.429 84.8333 292.096 89.5C294.596 92.3333 296.596 95.6667 298.096 99.5C299.596 103.333 300.512 108.167 300.846 114C301.012 121.167 299.596 128.083 296.596 134.75C293.762 141.25 289.512 146.667 283.846 151C278.012 155.5 271.512 158.333 264.346 159.5C257.179 160.5 250.012 161 242.846 161H173.846V3.49999H244.596ZM224.846 67.25H232.346C235.012 67.25 237.512 67.1667 239.846 67C242.179 66.6667 244.262 66 246.096 65C248.762 63.3333 250.096 60.1667 250.096 55.5C250.096 51.8333 248.762 49.1667 246.096 47.5C244.262 46.6667 242.096 46.1667 239.596 46C237.262 45.8333 235.012 45.75 232.846 45.75H224.846V67.25ZM224.846 118.75H234.846C238.346 118.75 241.596 118 244.596 116.5C247.762 115 249.512 112.083 249.846 107.75C250.012 103.25 248.596 100.333 245.596 99C242.596 97.5 239.179 96.75 235.346 96.75H224.846V118.75ZM466.002 93.25C460.002 91.4167 454.585 89.0833 449.752 86.25C445.085 83.25 441.252 79.6667 438.252 75.5C435.585 71.8333 433.669 68 432.502 64C431.335 59.8333 430.752 55.5833 430.752 51.25C431.252 34.5833 438.585 21.4167 452.752 11.75C458.252 7.91667 464.669 5.08333 472.002 3.24999C479.335 1.41666 487.002 0.499995 495.002 0.499995C500.835 0.499995 506.502 1.08333 512.002 2.24999C517.669 3.24999 522.752 4.83333 527.252 6.99999C534.252 10.1667 540.669 14.75 546.502 20.75C552.335 26.5833 556.252 33.25 558.252 40.75L525.502 61.5C522.669 55.6667 518.419 51.0833 512.752 47.75C507.085 44.4167 501.002 42.5833 494.502 42.25C492.669 42.25 490.585 42.25 488.252 42.25C485.919 42.25 483.669 42.6667 481.502 43.5C479.669 44.1667 478.085 45.0833 476.752 46.25C475.419 47.4167 474.752 49.1667 474.752 51.5C474.752 54.3333 475.919 56.5 478.252 58C480.752 59.3333 483.419 60.4167 486.252 61.25L522.002 71.25C528.335 73.0833 534.085 75.4167 539.252 78.25C544.419 80.9167 548.585 84.4167 551.752 88.75C556.419 94.9167 558.752 103.167 558.752 113.5C558.752 122 556.835 129.5 553.002 136C549.335 142.5 544.752 147.833 539.252 152C532.919 156.667 525.835 159.833 518.002 161.5C510.335 163.333 502.252 164.167 493.752 164C486.752 164 479.419 163 471.752 161C464.252 159.167 457.502 156.417 451.502 152.75C446.669 149.75 442.085 146.25 437.752 142.25C433.419 138.083 429.585 133.167 426.252 127.5L458.752 102.75C462.252 109.417 467.419 114.25 474.252 117.25C476.919 118.583 479.919 119.667 483.252 120.5C486.585 121.333 490.002 121.917 493.502 122.25C495.002 122.417 496.835 122.5 499.002 122.5C501.169 122.333 503.169 121.917 505.002 121.25C507.002 120.583 508.669 119.667 510.002 118.5C511.335 117.167 512.002 115.417 512.002 113.25C511.835 111.083 510.919 109.417 509.252 108.25C507.752 106.917 505.502 105.75 502.502 104.75L466.002 93.25Z" fill="#432876"/>
</g>
<defs>
<filter id="filter0_i_824_556" x="0" y="0.5" width="558.752" height="167.75" filterUnits="userSpaceOnUse" color-interpolation-filters="sRGB">
<feFlood flood-opacity="0" result="BackgroundImageFix"/>
<feBlend mode="normal" in="SourceGraphic" in2="BackgroundImageFix" result="shape"/>
<feColorMatrix in="SourceAlpha" type="matrix" values="0 0 0 0 0 0 0 0 0 0 0 0 0 0 0 0 0 0 127 0" result="hardAlpha"/>
<feOffset dy="4"/>
<feGaussianBlur stdDeviation="2"/>
<feComposite in2="hardAlpha" operator="arithmetic" k2="-1" k3="1"/>
<feColorMatrix type="matrix" values="0 0 0 0 0 0 0 0 0 0 0 0 0 0 0 0 0 0 0.25 0"/>
<feBlend mode="normal" in2="shape" result="effect1_innerShadow_824_556"/>
</filter>
</defs>
</svg>
