<svg width="59" height="50" viewBox="0 0 59 50" fill="none" xmlns="http://www.w3.org/2000/svg">
<path d="M4.91666 22.9167C4.91666 18.7501 7.375 16.6667 12.2917 16.6667H24.5833V39.5834C24.5833 43.7501 27.0417 45.8334 31.9583 45.8334H12.2917C7.375 45.8334 4.91666 43.7501 4.91666 39.5834V31.2501" stroke="#432876" stroke-width="3" stroke-miterlimit="10" stroke-linecap="round" stroke-linejoin="round"/>
<path d="M24.8537 8.33325C24.657 8.95825 24.5833 9.64575 24.5833 10.4166V16.6666H12.2917V12.4999C12.2917 10.2083 14.5042 8.33325 17.2083 8.33325H24.8537Z" stroke="#432876" stroke-width="3" stroke-miterlimit="10" stroke-linecap="round" stroke-linejoin="round"/>
<path d="M34.4167 16.6667V27.0834" stroke="#432876" stroke-width="3" stroke-miterlimit="10" stroke-linecap="round" stroke-linejoin="round"/>
<path d="M44.25 16.6667V27.0834" stroke="#432876" stroke-width="3" stroke-miterlimit="10" stroke-linecap="round" stroke-linejoin="round"/>
<path d="M41.7917 35.4167H36.875C35.5229 35.4167 34.4167 36.3542 34.4167 37.5001V45.8334H44.25V37.5001C44.25 36.3542 43.1438 35.4167 41.7917 35.4167Z" stroke="#432876" stroke-width="3" stroke-miterlimit="10" stroke-linecap="round" stroke-linejoin="round"/>
<path d="M14.75 27.0833V35.4166" stroke="#432876" stroke-width="3" stroke-miterlimit="10" stroke-linecap="round" stroke-linejoin="round"/>
<path d="M24.5833 39.5834V10.4167C24.5833 6.25008 27.0417 4.16675 31.9583 4.16675H46.7083C51.625 4.16675 54.0833 6.25008 54.0833 10.4167V39.5834C54.0833 43.7501 51.625 45.8334 46.7083 45.8334H31.9583C27.0417 45.8334 24.5833 43.7501 24.5833 39.5834Z" stroke="#432876" stroke-width="3" stroke-miterlimit="10" stroke-linecap="round" stroke-linejoin="round"/>
</svg>
