<svg width="59" height="50" viewBox="0 0 59 50" fill="none" xmlns="http://www.w3.org/2000/svg">
<path d="M4.91666 22.9166C4.91666 18.75 7.375 16.6666 12.2917 16.6666H24.5833V39.5833C24.5833 43.75 27.0417 45.8333 31.9583 45.8333H12.2917C7.375 45.8333 4.91666 43.75 4.91666 39.5833V31.25" stroke="#432876" stroke-width="3" stroke-miterlimit="10" stroke-linecap="round" stroke-linejoin="round"/>
<path d="M24.8537 8.33337C24.657 8.95837 24.5833 9.64587 24.5833 10.4167V16.6667H12.2917V12.5C12.2917 10.2084 14.5042 8.33337 17.2083 8.33337H24.8537Z" stroke="#432876" stroke-width="3" stroke-miterlimit="10" stroke-linecap="round" stroke-linejoin="round"/>
<path d="M34.4167 16.6666V27.0833" stroke="#432876" stroke-width="3" stroke-miterlimit="10" stroke-linecap="round" stroke-linejoin="round"/>
<path d="M44.25 16.6666V27.0833" stroke="#432876" stroke-width="3" stroke-miterlimit="10" stroke-linecap="round" stroke-linejoin="round"/>
<path d="M41.7917 35.4166H36.875C35.5229 35.4166 34.4167 36.3541 34.4167 37.5V45.8333H44.25V37.5C44.25 36.3541 43.1438 35.4166 41.7917 35.4166Z" stroke="#432876" stroke-width="3" stroke-miterlimit="10" stroke-linecap="round" stroke-linejoin="round"/>
<path d="M14.75 27.0834V35.4167" stroke="#432876" stroke-width="3" stroke-miterlimit="10" stroke-linecap="round" stroke-linejoin="round"/>
<path d="M24.5833 39.5833V10.4166C24.5833 6.24996 27.0417 4.16663 31.9583 4.16663H46.7083C51.625 4.16663 54.0833 6.24996 54.0833 10.4166V39.5833C54.0833 43.75 51.625 45.8333 46.7083 45.8333H31.9583C27.0417 45.8333 24.5833 43.75 24.5833 39.5833Z" stroke="#432876" stroke-width="3" stroke-miterlimit="10" stroke-linecap="round" stroke-linejoin="round"/>
</svg>
