<svg width="50" height="42" viewBox="0 0 50 42" fill="none" xmlns="http://www.w3.org/2000/svg">
<path d="M44.8424 10.8229C44.8622 11.2625 44.8722 11.7041 44.8722 12.1476C44.8722 25.6771 34.5733 41.277 15.7439 41.277C9.96174 41.277 4.57961 39.582 0.0489502 36.677C0.850903 36.772 1.66477 36.8206 2.49153 36.8206C7.2885 36.8206 11.7023 35.1839 15.2073 32.4374C10.7261 32.3552 6.94592 29.395 5.64299 25.3276C6.26877 25.4474 6.9094 25.5118 7.56975 25.5118C8.50237 25.5118 9.40725 25.3861 10.2667 25.1524C5.58362 24.2117 2.05383 20.0742 2.05383 15.1138C2.05383 15.0703 2.05383 15.0277 2.05491 14.9851C3.43508 15.7514 5.01331 16.2119 6.69241 16.2653C3.94495 14.4297 2.13801 11.296 2.13801 7.7436C2.13801 5.86743 2.64192 4.10903 3.52405 2.59712C8.57356 8.79106 16.1159 12.8663 24.6248 13.294C24.4506 12.5445 24.3594 11.7633 24.3594 10.9604C24.3594 5.30698 28.9435 0.7229 34.5969 0.7229C37.5435 0.7229 40.2028 1.96645 42.07 3.95552C44.4028 3.49712 46.5928 2.64468 48.5709 1.47134C47.8066 3.86245 46.1848 5.86831 44.07 7.1356C46.1412 6.88804 48.1156 6.33765 49.9511 5.52378C48.5789 7.57632 46.8424 9.37925 44.8424 10.8229Z" fill="#29154D"/>
</svg>
